<mxfile host="65bd71144e">
    <diagram id="yk8NF5s4lmzRFMYtV1e7" name="Page-1">
        <mxGraphModel dx="1130" dy="792" grid="1" gridSize="10" guides="1" tooltips="1" connect="1" arrows="1" fold="1" page="1" pageScale="1" pageWidth="827" pageHeight="1169" math="0" shadow="0">
            <root>
                <mxCell id="0"/>
                <mxCell id="1" parent="0"/>
                <mxCell id="2" value="Gerar PDF do Pedido" style="shape=umlFrame;whiteSpace=wrap;html=1;width=80;height=40;" parent="1" vertex="1">
                    <mxGeometry x="20" y="60" width="640" height="390" as="geometry"/>
                </mxCell>
                <mxCell id="7" value="" style="shape=umlLifeline;participant=umlActor;perimeter=lifelinePerimeter;whiteSpace=wrap;html=1;container=1;collapsible=0;recursiveResize=0;verticalAlign=top;spacingTop=36;outlineConnect=0;" parent="1" vertex="1">
                    <mxGeometry x="80" y="140" width="20" height="260" as="geometry"/>
                </mxCell>
                <mxCell id="10" value="" style="html=1;points=[];perimeter=orthogonalPerimeter;" parent="7" vertex="1">
                    <mxGeometry x="5" y="60" width="10" height="80" as="geometry"/>
                </mxCell>
                <mxCell id="35" value="" style="html=1;points=[];perimeter=orthogonalPerimeter;" parent="7" vertex="1">
                    <mxGeometry x="5" y="160" width="10" height="30" as="geometry"/>
                </mxCell>
                <mxCell id="9" value="Sistema" style="text;html=1;strokeColor=none;fillColor=none;align=center;verticalAlign=middle;whiteSpace=wrap;rounded=0;" parent="1" vertex="1">
                    <mxGeometry x="100" y="120" width="60" height="30" as="geometry"/>
                </mxCell>
                <mxCell id="34" value="&lt;font style=&quot;font-size: 11px;&quot;&gt;2: Retona com o id e as informações do pedido&lt;/font&gt;" style="html=1;verticalAlign=bottom;endArrow=open;dashed=1;endSize=8;fontSize=10;exitX=-0.25;exitY=0.625;exitDx=0;exitDy=0;exitPerimeter=0;entryX=1;entryY=0.5;entryDx=0;entryDy=0;entryPerimeter=0;" parent="1" edge="1">
                    <mxGeometry relative="1" as="geometry">
                        <mxPoint x="402.5" y="261" as="sourcePoint"/>
                        <mxPoint x="95" y="261" as="targetPoint"/>
                    </mxGeometry>
                </mxCell>
                <mxCell id="12" value="" style="html=1;verticalAlign=bottom;endArrow=block;" parent="1" edge="1">
                    <mxGeometry width="80" relative="1" as="geometry">
                        <mxPoint x="90" y="224" as="sourcePoint"/>
                        <mxPoint x="400" y="224" as="targetPoint"/>
                        <Array as="points">
                            <mxPoint x="210" y="224"/>
                            <mxPoint x="240" y="224"/>
                            <mxPoint x="270" y="224"/>
                        </Array>
                    </mxGeometry>
                </mxCell>
                <mxCell id="14" value="1: Enviar&amp;nbsp; o Id do pedido" style="edgeLabel;html=1;align=center;verticalAlign=middle;resizable=0;points=[];" parent="12" vertex="1" connectable="0">
                    <mxGeometry x="0.219" relative="1" as="geometry">
                        <mxPoint x="-19" y="-24" as="offset"/>
                    </mxGeometry>
                </mxCell>
                <mxCell id="6" value="Banco de dados" style="shape=umlLifeline;perimeter=lifelinePerimeter;whiteSpace=wrap;html=1;container=1;collapsible=0;recursiveResize=0;outlineConnect=0;" parent="1" vertex="1">
                    <mxGeometry x="360" y="140" width="100" height="260" as="geometry"/>
                </mxCell>
                <mxCell id="13" value="" style="html=1;points=[];perimeter=orthogonalPerimeter;" parent="6" vertex="1">
                    <mxGeometry x="45" y="60" width="10" height="80" as="geometry"/>
                </mxCell>
                <mxCell id="57" value="" style="shape=umlLifeline;participant=umlActor;perimeter=lifelinePerimeter;whiteSpace=wrap;html=1;container=1;collapsible=0;recursiveResize=0;verticalAlign=top;spacingTop=36;outlineConnect=0;" vertex="1" parent="1">
                    <mxGeometry x="560" y="140" width="20" height="260" as="geometry"/>
                </mxCell>
                <mxCell id="59" value="" style="html=1;points=[];perimeter=orthogonalPerimeter;" vertex="1" parent="57">
                    <mxGeometry x="5" y="160" width="10" height="30" as="geometry"/>
                </mxCell>
                <mxCell id="60" value="Usuário" style="text;html=1;strokeColor=none;fillColor=none;align=center;verticalAlign=middle;whiteSpace=wrap;rounded=0;" vertex="1" parent="1">
                    <mxGeometry x="580" y="110" width="60" height="30" as="geometry"/>
                </mxCell>
                <mxCell id="61" value="" style="html=1;verticalAlign=bottom;endArrow=block;exitX=0;exitY=0.865;exitDx=0;exitDy=0;exitPerimeter=0;entryX=0;entryY=0.4;entryDx=0;entryDy=0;entryPerimeter=0;" edge="1" parent="1" target="59">
                    <mxGeometry width="80" relative="1" as="geometry">
                        <mxPoint x="100" y="311.68000000000006" as="sourcePoint"/>
                        <mxPoint x="371.67" y="310" as="targetPoint"/>
                    </mxGeometry>
                </mxCell>
                <mxCell id="62" value="3: Enviar&amp;nbsp; PDF do pedidio para o usuário" style="edgeLabel;html=1;align=center;verticalAlign=middle;resizable=0;points=[];" vertex="1" connectable="0" parent="1">
                    <mxGeometry x="270" y="300" as="geometry"/>
                </mxCell>
            </root>
        </mxGraphModel>
    </diagram>
</mxfile>